<svg aria-hidden="true" style="position: absolute; width: 0; height: 0; overflow: hidden;" version="1.1" xmlns="http://www.w3.org/2000/svg" xmlns:xlink="http://www.w3.org/1999/xlink">
<defs>
<symbol id="icon-arrow-down" viewBox="0 0 51 32">
<path stroke-linejoin="miter" stroke-linecap="butt" stroke-miterlimit="4" stroke-width="6.4" d="M4.267 4.267l21.333 21.333 21.333-21.333"></path>
</symbol>
<symbol id="icon-Ñ" viewBox="0 0 25 32">
<path d="M13.455 30.098c-2.518 0-4.685-0.594-6.503-1.783s-3.217-2.826-4.196-4.913c-0.979-2.086-1.469-4.47-1.469-7.15 0-2.727 0.501-5.134 1.504-7.22 1.014-2.098 2.424-3.735 4.231-4.913 1.818-1.189 3.939-1.783 6.364-1.783 1.888 0 3.59 0.35 5.105 1.049s2.756 1.678 3.724 2.937c0.967 1.259 1.568 2.727 1.801 4.406h-4.126c-0.315-1.224-1.014-2.308-2.098-3.252-1.072-0.956-2.517-1.434-4.336-1.434-1.608 0-3.019 0.42-4.231 1.259-1.2 0.827-2.139 1.999-2.815 3.514-0.664 1.503-0.997 3.269-0.997 5.297 0 2.075 0.326 3.881 0.979 5.42 0.664 1.538 1.597 2.733 2.797 3.584 1.212 0.851 2.634 1.276 4.266 1.276 1.072 0 2.045-0.187 2.92-0.559s1.614-0.909 2.22-1.608c0.606-0.699 1.037-1.538 1.294-2.518h4.126c-0.233 1.585-0.81 3.013-1.731 4.283-0.909 1.259-2.115 2.261-3.619 3.007-1.492 0.734-3.228 1.102-5.21 1.102z"></path>
</symbol>
<symbol id="icon-reload" viewBox="0 0 32 32">
<path d="M16 0c-6 0-11.2 3.2-13.8 8.2l-2.2-2.2v8h8l-3-3c2-4 6.2-7 11-7 6.6 0 12 5.4 12 12s-5.4 12-12 12c-3.6 0-6.8-1.6-9-4.2l-3 2.6c2.8 3.4 7.2 5.6 12 5.6 8.8 0 16-7.2 16-16s-7.2-16-16-16z"></path>
</symbol>
<symbol id="icon-truck" viewBox="0 0 36 32">
<path d="M35.487 15.568l-4.2-9.8c-0.108-0.252-0.287-0.467-0.516-0.617s-0.497-0.231-0.771-0.231h-4.2v-2.8c0-0.371-0.148-0.727-0.41-0.99s-0.619-0.41-0.99-0.41h-22.4v2.8h21v17.578c-0.638 0.37-1.196 0.863-1.643 1.451s-0.772 1.257-0.958 1.971h-8.798c-0.341-1.32-1.151-2.47-2.279-3.235s-2.496-1.092-3.849-0.92c-1.352 0.172-2.595 0.831-3.496 1.853s-1.398 2.339-1.398 3.702c0 1.363 0.497 2.679 1.398 3.702s2.144 1.682 3.496 1.853c1.352 0.172 2.721-0.156 3.849-0.92s1.938-1.915 2.279-3.235h8.798c0.305 1.201 1.001 2.267 1.979 3.028s2.182 1.175 3.422 1.175 2.444-0.413 3.422-1.175c0.978-0.761 1.675-1.827 1.979-3.028h2.999c0.371 0 0.727-0.148 0.99-0.41s0.41-0.619 0.41-0.99v-9.8c0-0.19-0.039-0.377-0.113-0.552zM6.2 28.72c-0.554 0-1.095-0.164-1.556-0.472s-0.819-0.745-1.031-1.257-0.267-1.075-0.159-1.618c0.108-0.543 0.375-1.042 0.766-1.434s0.891-0.658 1.434-0.766c0.543-0.108 1.106-0.053 1.618 0.159s0.949 0.571 1.257 1.031c0.308 0.46 0.472 1.002 0.472 1.556-0.001 0.742-0.296 1.454-0.821 1.979s-1.237 0.82-1.979 0.821zM25.8 7.72h3.276l3.002 7h-6.278v-7zM25.8 28.72c-0.554 0-1.095-0.164-1.556-0.472s-0.819-0.745-1.031-1.257-0.267-1.075-0.159-1.618c0.108-0.543 0.375-1.042 0.766-1.434s0.89-0.658 1.434-0.766c0.543-0.108 1.106-0.053 1.618 0.159s0.949 0.571 1.257 1.031c0.308 0.46 0.472 1.002 0.472 1.556-0.001 0.742-0.296 1.454-0.821 1.979s-1.237 0.82-1.979 0.821zM32.8 24.52h-1.599c-0.308-1.199-1.006-2.262-1.983-3.022s-2.18-1.174-3.418-1.178v-2.8h7v7z"></path>
</symbol>
<symbol id="icon-cart" viewBox="0 0 35 32">
<path d="M34.279 8.521c-0.099-0.132-0.231-0.24-0.383-0.314s-0.322-0.113-0.494-0.113h-22.921l-1.735-5.611c-0.68-2.209-2.297-2.448-2.96-2.448h-4.626c-0.593 0-1.072 0.45-1.072 1.006s0.48 1.006 1.072 1.006h4.626c0.146 0 0.593 0 0.897 0.987l5.969 20.57c0.13 0.434 0.551 0.734 1.033 0.734h14.579c0.452 0 0.856-0.266 1.009-0.665l5.139-14.232c0.118-0.308 0.069-0.652-0.131-0.919v0zM27.507 22.326h-13.010l-3.414-12.221h20.793l-4.369 12.221zM25.38 26.375c-1.491 0-2.7 1.133-2.7 2.532s1.209 2.532 2.7 2.532c1.491 0 2.7-1.133 2.7-2.532s-1.209-2.532-2.7-2.532zM15.66 26.375c-1.491 0-2.7 1.133-2.7 2.532s1.208 2.532 2.7 2.532c1.492 0 2.7-1.133 2.7-2.532s-1.208-2.532-2.7-2.532z"></path>
</symbol>
<symbol id="icon-search" viewBox="0 0 35 32">
<path d="M24.952 19.879h-1.505l-0.533-0.482c1.19-1.297 2.060-2.824 2.548-4.473s0.58-3.379 0.271-5.065c-0.895-4.966-5.314-8.931-10.648-9.538-1.875-0.222-3.779-0.040-5.568 0.534s-3.413 1.524-4.749 2.777c-1.336 1.253-2.349 2.777-2.961 4.453s-0.807 3.463-0.57 5.221c0.648 5.001 4.876 9.145 10.171 9.985 1.798 0.29 3.643 0.203 5.401-0.254s3.387-1.273 4.77-2.389l0.514 0.5v1.411l8.095 7.591c0.781 0.732 2.057 0.732 2.838 0s0.781-1.929 0-2.662l-8.076-7.609zM13.524 19.879c-4.743 0-8.571-3.59-8.571-8.038s3.829-8.038 8.571-8.038c4.743 0 8.571 3.59 8.571 8.038s-3.829 8.038-8.571 8.038z"></path>
</symbol>
<symbol id="icon-heart" viewBox="0 0 37 32">
<path stroke-linejoin="round" stroke-linecap="round" stroke-miterlimit="4" stroke-width="3.2" d="M10.9 2.467c-5.063 0-9.167 3.849-9.167 8.596 0 8.596 10.833 16.411 16.667 18.229 5.833-1.818 16.667-9.632 16.667-18.229 0-4.747-4.104-8.596-9.167-8.596-3.1 0-5.841 1.443-7.5 3.652-1.659-2.209-4.4-3.652-7.5-3.652z"></path>
</symbol>
</defs>
</svg>
