<svg aria-hidden="true" style="position: absolute; width: 0; height: 0; overflow: hidden;" version="1.1" xmlns="http://www.w3.org/2000/svg" xmlns:xlink="http://www.w3.org/1999/xlink">
<defs>
<symbol id="icon-arrow-down" viewBox="0 0 51 32">
<path stroke-linejoin="miter" stroke-linecap="butt" stroke-miterlimit="4" stroke-width="6.4" d="M4.267 4.267l21.333 21.333 21.333-21.333"></path>
</symbol>
<symbol id="icon-truck" viewBox="0 0 32 32">
<path d="M4 16h12v2h-12v-2zM2 11h10v2h-10v-2z"></path>
<path d="M29.919 16.606l-3-7c-0.077-0.18-0.205-0.333-0.369-0.441s-0.355-0.165-0.55-0.165h-3v-2c0-0.265-0.105-0.52-0.293-0.707s-0.442-0.293-0.707-0.293h-16v2h15v12.556c-0.456 0.265-0.855 0.617-1.173 1.036s-0.552 0.898-0.685 1.408h-6.284c-0.243-0.943-0.822-1.764-1.628-2.311s-1.783-0.78-2.749-0.657c-0.966 0.123-1.854 0.593-2.497 1.324s-0.999 1.671-0.999 2.644c0 0.974 0.355 1.914 0.999 2.644s1.532 1.201 2.497 1.324c0.966 0.123 1.943-0.111 2.749-0.657s1.385-1.368 1.628-2.311h6.284c0.218 0.858 0.715 1.619 1.414 2.163s1.559 0.839 2.444 0.839 1.745-0.295 2.444-0.839c0.699-0.544 1.196-1.305 1.414-2.163h2.142c0.265 0 0.52-0.105 0.707-0.293s0.293-0.442 0.293-0.707v-7c0-0.136-0.028-0.27-0.081-0.394zM9 26c-0.396 0-0.782-0.117-1.111-0.337s-0.585-0.532-0.737-0.898-0.191-0.768-0.114-1.156c0.077-0.388 0.268-0.744 0.547-1.024s0.636-0.47 1.024-0.547c0.388-0.077 0.79-0.038 1.156 0.114s0.678 0.408 0.898 0.737c0.22 0.329 0.337 0.716 0.337 1.111-0.001 0.53-0.211 1.039-0.586 1.414s-0.883 0.586-1.414 0.586zM23 11h2.34l2.144 5h-4.484v-5zM23 26c-0.396 0-0.782-0.117-1.111-0.337s-0.585-0.532-0.737-0.898-0.191-0.768-0.114-1.156c0.077-0.388 0.268-0.744 0.547-1.024s0.636-0.47 1.024-0.547c0.388-0.077 0.79-0.038 1.156 0.114s0.678 0.408 0.898 0.737c0.22 0.329 0.337 0.716 0.337 1.111-0.001 0.53-0.211 1.039-0.586 1.414s-0.883 0.586-1.414 0.586zM28 23h-1.142c-0.22-0.857-0.719-1.616-1.417-2.159s-1.557-0.839-2.441-0.841v-2h5v5z"></path>
</symbol>
<symbol id="icon-c" viewBox="0 0 31 32">
<path fill="#f5f5f5" style="fill: var(--color1, #f5f5f5); stroke: var(--color2, #121212)" stroke="#121212" stroke-linejoin="miter" stroke-linecap="butt" stroke-miterlimit="4" stroke-width="1.2308" d="M30.154 16.713c0 8.099-6.609 14.671-14.769 14.671s-14.769-6.572-14.769-14.671 6.609-14.671 14.769-14.671c8.16 0 14.769 6.572 14.769 14.671z"></path>
<path fill="#121212" style="fill: var(--color2, #121212)" d="M16.573 23.664c-1.259 0-2.343-0.297-3.252-0.892s-1.608-1.413-2.098-2.456-0.734-2.235-0.734-3.575c0-1.364 0.251-2.567 0.752-3.61 0.507-1.049 1.212-1.868 2.115-2.456 0.909-0.594 1.97-0.892 3.182-0.892 0.944 0 1.795 0.175 2.553 0.524s1.378 0.839 1.862 1.469c0.484 0.629 0.784 1.364 0.9 2.203h-2.063c-0.157-0.612-0.507-1.154-1.049-1.626-0.536-0.478-1.259-0.717-2.168-0.717-0.804 0-1.509 0.21-2.115 0.629-0.6 0.414-1.069 0.999-1.407 1.757-0.332 0.752-0.498 1.635-0.498 2.649 0 1.037 0.163 1.941 0.489 2.71 0.332 0.769 0.798 1.367 1.399 1.792 0.606 0.425 1.317 0.638 2.133 0.638 0.536 0 1.023-0.093 1.46-0.28s0.807-0.455 1.11-0.804c0.303-0.35 0.519-0.769 0.647-1.259h2.063c-0.117 0.793-0.405 1.506-0.865 2.142-0.455 0.629-1.058 1.131-1.809 1.503-0.746 0.367-1.614 0.551-2.605 0.551z"></path>
</symbol>

<symbol id="icon-reload" viewBox="0 0 32 32">
<path d="M16 0c-6 0-11.2 3.2-13.8 8.2l-2.2-2.2v8h8l-3-3c2-4 6.2-7 11-7 6.6 0 12 5.4 12 12s-5.4 12-12 12c-3.6 0-6.8-1.6-9-4.2l-3 2.6c2.8 3.4 7.2 5.6 12 5.6 8.8 0 16-7.2 16-16s-7.2-16-16-16z"></path>
</symbol>
<symbol id="icon-cart" viewBox="0 0 35 32">
<path d="M34.279 8.521c-0.099-0.132-0.231-0.24-0.383-0.314s-0.322-0.113-0.494-0.113h-22.921l-1.735-5.611c-0.68-2.209-2.297-2.448-2.96-2.448h-4.626c-0.593 0-1.072 0.45-1.072 1.006s0.48 1.006 1.072 1.006h4.626c0.146 0 0.593 0 0.897 0.987l5.969 20.57c0.13 0.434 0.551 0.734 1.033 0.734h14.579c0.452 0 0.856-0.266 1.009-0.665l5.139-14.232c0.118-0.308 0.069-0.652-0.131-0.919v0zM27.507 22.326h-13.010l-3.414-12.221h20.793l-4.369 12.221zM25.38 26.375c-1.491 0-2.7 1.133-2.7 2.532s1.209 2.532 2.7 2.532c1.491 0 2.7-1.133 2.7-2.532s-1.209-2.532-2.7-2.532zM15.66 26.375c-1.491 0-2.7 1.133-2.7 2.532s1.208 2.532 2.7 2.532c1.492 0 2.7-1.133 2.7-2.532s-1.208-2.532-2.7-2.532z"></path>
</symbol>
<symbol id="icon-search" viewBox="0 0 35 32">
<path d="M24.952 19.879h-1.505l-0.533-0.482c1.19-1.297 2.060-2.824 2.548-4.473s0.58-3.379 0.271-5.065c-0.895-4.966-5.314-8.931-10.648-9.538-1.875-0.222-3.779-0.040-5.568 0.534s-3.413 1.524-4.749 2.777c-1.336 1.253-2.349 2.777-2.961 4.453s-0.807 3.463-0.57 5.221c0.648 5.001 4.876 9.145 10.171 9.985 1.798 0.29 3.643 0.203 5.401-0.254s3.387-1.273 4.77-2.389l0.514 0.5v1.411l8.095 7.591c0.781 0.732 2.057 0.732 2.838 0s0.781-1.929 0-2.662l-8.076-7.609zM13.524 19.879c-4.743 0-8.571-3.59-8.571-8.038s3.829-8.038 8.571-8.038c4.743 0 8.571 3.59 8.571 8.038s-3.829 8.038-8.571 8.038z"></path>
</symbol>
<symbol id="icon-heart" viewBox="0 0 37 32">
<path stroke-linejoin="round" stroke-linecap="round" stroke-miterlimit="4" stroke-width="3.2" d="M10.9 2.467c-5.063 0-9.167 3.849-9.167 8.596 0 8.596 10.833 16.411 16.667 18.229 5.833-1.818 16.667-9.632 16.667-18.229 0-4.747-4.104-8.596-9.167-8.596-3.1 0-5.841 1.443-7.5 3.652-1.659-2.209-4.4-3.652-7.5-3.652z"></path>
</symbol>
</defs>
</svg>
